<svg xmlns="http://www.w3.org/2000/svg" viewBox="0 0 31.181 31.181"><path d="M15.542,5.217c-1,0-2.963,2.89-2.963,8.19q0,.38.009.72a14.409,14.409,0,0,1,5.9-.059c.009-.226.014-.445.014-.661,0-5.3-1.957-8.19-2.964-8.19Zm-2.525,12.02a8.79,8.79,0,0,0,2.593,4.319,8.321,8.321,0,0,0,2.518-4.364,11.1,11.1,0,0,0-5.111.045Zm5.107,6.245c.183.11.379.225.59.346a14.75,14.75,0,0,0,6.732,2.137c.97,0,1.7-.224,1.911-.584.5-.863-1.045-3.987-5.679-6.637q-.3-.169-.607-.329a11.429,11.429,0,0,1-2.947,5.067Zm-8.045-5.048c-.191.1-.379.2-.563.309A15.7,15.7,0,0,0,4.65,22.881c-.863,1.211-1.031,2.128-.814,2.5s.942.584,1.912.584a14.743,14.743,0,0,0,6.731-2.137c.207-.118.409-.238.6-.356a11.741,11.741,0,0,1-3-5.038ZM5.748,29.091c-2.187,0-3.837-.763-4.644-2.147-.932-1.6-.587-3.682.97-5.866a18.612,18.612,0,0,1,5.864-5.041c.5-.283,1.014-.554,1.548-.807-.042-.549-.062-1.148-.062-1.823,0-6.451,2.63-11.316,6.118-11.316s6.119,4.865,6.119,11.316c0,.565-.025,1.145-.079,1.776.553.256,1.127.541,1.674.855,5.639,3.224,8.577,7.913,6.834,10.906-.807,1.384-2.456,2.147-4.644,2.147a17.728,17.728,0,0,1-8.308-2.556c-.605-.346-1.107-.655-1.547-.955q-.717.488-1.534.954a17.729,17.729,0,0,1-8.309,2.557Z" fill="#e50051"/></svg>